<mxfile host="app.diagrams.net" modified="2024-04-09T06:49:09.134Z" agent="Mozilla/5.0 (Windows NT 10.0; Win64; x64) AppleWebKit/537.36 (KHTML, like Gecko) Chrome/123.0.0.0 Safari/537.36" etag="0pNvFls9kF5FJI_phHS9" version="23.1.3" type="device">
  <diagram name="1 oldal" id="yTtiCl8wU1QipExr6Qv_">
    <mxGraphModel dx="2234" dy="738" grid="1" gridSize="10" guides="1" tooltips="1" connect="1" arrows="1" fold="1" page="0" pageScale="1" pageWidth="1169" pageHeight="827" math="0" shadow="0">
      <root>
        <mxCell id="0" />
        <mxCell id="1" parent="0" />
        <mxCell id="I_JEJb52zLFdTlIO5UJ--1" value="" style="ellipse;whiteSpace=wrap;html=1;fillColor=#dae8fc;labelBackgroundColor=#FF5E5E;fillStyle=auto;strokeColor=#6c8ebf;opacity=50;" vertex="1" parent="1">
          <mxGeometry x="-800" y="222" width="200" height="200" as="geometry" />
        </mxCell>
        <mxCell id="I_JEJb52zLFdTlIO5UJ--2" value="" style="ellipse;whiteSpace=wrap;html=1;fillStyle=auto;fillColor=#f8cecc;opacity=40;strokeColor=#b85450;" vertex="1" parent="1">
          <mxGeometry x="-700" y="222" width="200" height="200" as="geometry" />
        </mxCell>
        <mxCell id="I_JEJb52zLFdTlIO5UJ--3" value="Code that runs&lt;br&gt;on NodeJS" style="text;html=1;align=center;verticalAlign=middle;resizable=0;points=[];autosize=1;strokeColor=none;fillColor=none;" vertex="1" parent="1">
          <mxGeometry x="-800" y="302" width="100" height="40" as="geometry" />
        </mxCell>
        <mxCell id="I_JEJb52zLFdTlIO5UJ--4" value="Code that runs&lt;br&gt;on edge" style="text;html=1;align=center;verticalAlign=middle;resizable=0;points=[];autosize=1;strokeColor=none;fillColor=none;" vertex="1" parent="1">
          <mxGeometry x="-600" y="302" width="100" height="40" as="geometry" />
        </mxCell>
        <mxCell id="I_JEJb52zLFdTlIO5UJ--5" value="JS&lt;br style=&quot;font-size: 14px;&quot;&gt;backend&lt;br style=&quot;font-size: 14px;&quot;&gt;on steroids" style="text;html=1;align=center;verticalAlign=middle;resizable=0;points=[];autosize=1;strokeColor=none;fillColor=none;rounded=0;fontStyle=1;fontSize=14;" vertex="1" parent="1">
          <mxGeometry x="-700" y="292" width="100" height="60" as="geometry" />
        </mxCell>
      </root>
    </mxGraphModel>
  </diagram>
</mxfile>
